custom-analysis
version=1
nRows=4
nColumns=98
inDegrees=no

This file contains tibia displacement and acting force.

Units are S.I. units (seconds, meters, Newtons, ...)
Angles are in degrees.

endheader
time	APT	SIT	knee_angle	aACL_R_force	pACL_R_force	aPCL_R_force	pPCL_R_force	aMCL_R_force	mMCL_R_force	pMCL_R_force	aLCL_R_force	mLCL_R_force	pLCL_R_force	aPCL_L_force	pPCL_L_force	aMCL_L_force	aLCL_L_force	aACL_R_length	pACL_R_length	aPCL_R_length	pPCL_R_length	aMCL_R_length	mMCL_R_length	pMCL_R_length	aLCL_R_length	mLCL_R_length	pLCL_R_length	aPCL_L_length	pPCL_L_length	aMCL_L_length	aLCL_L_length	aACL_R_strain	pACL_R_strain	aPCL_R_strain	pPCL_R_strain	aMCL_R_strain	mMCL_R_strain	pMCL_R_strain	aLCL_R_strain	mLCL_R_strain	pLCL_R_strain	aPCL_L_strain	pPCL_L_strain	aMCL_L_strain	aLCL_L_strain	femur_lat_meniscii_r.femur_lat_r.force.X	femur_lat_meniscii_r.femur_lat_r.force.Y	femur_lat_meniscii_r.femur_lat_r.force.Z	femur_lat_meniscii_r.femur_lat_r.torque.X	femur_lat_meniscii_r.femur_lat_r.torque.Y	femur_lat_meniscii_r.femur_lat_r.torque.Z	femur_lat_meniscii_r.meniscus_lat_r.force.X	femur_lat_meniscii_r.meniscus_lat_r.force.Y	femur_lat_meniscii_r.meniscus_lat_r.force.Z	femur_lat_meniscii_r.meniscus_lat_r.torque.X	femur_lat_meniscii_r.meniscus_lat_r.torque.Y	femur_lat_meniscii_r.meniscus_lat_r.torque.Z	femur_med_meniscii_r.femur_med_r.force.X	femur_med_meniscii_r.femur_med_r.force.Y	femur_med_meniscii_r.femur_med_r.force.Z	femur_med_meniscii_r.femur_med_r.torque.X	femur_med_meniscii_r.femur_med_r.torque.Y	femur_med_meniscii_r.femur_med_r.torque.Z	femur_med_meniscii_r.meniscus_med_r.force.X	femur_med_meniscii_r.meniscus_med_r.force.Y	femur_med_meniscii_r.meniscus_med_r.force.Z	femur_med_meniscii_r.meniscus_med_r.torque.X	femur_med_meniscii_r.meniscus_med_r.torque.Y	femur_med_meniscii_r.meniscus_med_r.torque.Z	femur_med_tibia_r.tibia_upper_r.force.X	femur_med_tibia_r.tibia_upper_r.force.Y	femur_med_tibia_r.tibia_upper_r.force.Z	femur_med_tibia_r.tibia_upper_r.torque.X	femur_med_tibia_r.tibia_upper_r.torque.Y	femur_med_tibia_r.tibia_upper_r.torque.Z	femur_med_tibia_r.femur_med_r.force.X	femur_med_tibia_r.femur_med_r.force.Y	femur_med_tibia_r.femur_med_r.force.Z	femur_med_tibia_r.femur_med_r.torque.X	femur_med_tibia_r.femur_med_r.torque.Y	femur_med_tibia_r.femur_med_r.torque.Z	femur_lat_tibia_r.tibia_upper_r.force.X	femur_lat_tibia_r.tibia_upper_r.force.Y	femur_lat_tibia_r.tibia_upper_r.force.Z	femur_lat_tibia_r.tibia_upper_r.torque.X	femur_lat_tibia_r.tibia_upper_r.torque.Y	femur_lat_tibia_r.tibia_upper_r.torque.Z	femur_lat_tibia_r.femur_lat_r.force.X	femur_lat_tibia_r.femur_lat_r.force.Y	femur_lat_tibia_r.femur_lat_r.force.Z	femur_lat_tibia_r.femur_lat_r.torque.X	femur_lat_tibia_r.femur_lat_r.torque.Y	femur_lat_tibia_r.femur_lat_r.torque.Z	femur_lat_meniscii_force_r	femur_med_meniscii_force_r	femur_lat_tibia_force_r	femur_med_tibia_force_r
      0.16455774	      0.01275269	      0.01742338	     57.08235698	     -8.16971649	      0.00000000	    582.69352476	    384.11164716	      0.00000000	      0.00000000	      0.00000000	      0.00000000	      0.00000000	      0.00000000	      0.00000000	      0.00000000	      0.00000001	      0.00000000	      0.03106842	      0.02378123	      0.03496031	      0.03247038	      0.05955317	      0.05923722	      0.05634095	      0.05235839	      0.04762524	      0.04274428	      0.01525851	      0.01651186	      0.06550154	      0.04489616	      0.00202918	     -0.05097895	      0.12429551	      0.08640928	     -0.00789369	     -0.00930334	     -0.04064578	     -0.06464788	     -0.15436036	     -0.18337653	      0.00000079	     -0.32847694	      0.00000060	     -0.00000086	     57.51205207	    123.05649272	     12.64191865	     -8.06828065	      1.36697514	     22.25325353	    -57.51205207	   -123.05649272	    -12.64191865	      3.36568524	     -1.71178046	      2.49666415	     15.14587751	     13.57859683	      9.39654073	     -3.49169665	     -0.35794825	      6.10514955	    -15.14587751	    -13.57859683	     -9.39654073	     -0.11716895	      0.14188222	      0.02405390	   -821.28612659	   -732.36899764	    230.02624413	    -16.94779633	     18.48333134	     -1.84198751	    821.28612659	    732.36899764	   -230.02624413	    106.84403185	    -14.93115931	    334.11725471	     -0.42836377	     -0.52373143	     -0.17953579	      0.01731547	     -0.01523575	      0.00313789	      0.42836377	      0.52373143	      0.17953579	     -0.08588343	      0.01090494	      0.17309555	    136.41977364	     22.40693810	      0.70001660	   1124.18295817
      0.16484583	      0.01277010	      0.01747898	     57.23922302	     -8.21864949	      0.00000000	    586.03853686	    385.83825180	      0.00000000	      0.00000000	      0.00000000	      0.00000000	      0.00000000	      0.00000000	      0.00000000	      0.00000000	      0.00000001	      0.00000000	      0.03106236	      0.02377736	      0.03497941	      0.03248112	      0.05956796	      0.05923941	      0.05633502	      0.05235041	      0.04761029	      0.04272617	      0.01525851	      0.01651186	      0.06550154	      0.04489616	      0.00183383	     -0.05113360	      0.12490980	      0.08676859	     -0.00764724	     -0.00926669	     -0.04074683	     -0.06479055	     -0.15462574	     -0.18372255	      0.00000079	     -0.32847694	      0.00000060	     -0.00000086	     58.10749776	    120.91689260	     11.60816015	     -7.57533961	      1.37262139	     22.51463020	    -58.10749776	   -120.91689260	    -11.60816015	      3.26902320	     -1.69788864	      2.42985476	     15.57716211	     13.70326336	      9.28062018	     -3.44024567	     -0.36899661	      6.28021578	    -15.57716211	    -13.70326336	     -9.28062018	     -0.12398378	      0.15411906	      0.01948214	   -826.05274684	   -732.31944986	    229.24907024	    -16.90365489	     18.54470788	     -1.83848220	    826.05274684	    732.31944986	   -229.24907024	    106.51334763	    -15.00805573	    336.02649836	     -0.42751387	     -0.52145624	     -0.17789979	      0.01717654	     -0.01517425	      0.00320867	      0.42751387	      0.52145624	      0.17789979	     -0.08512054	      0.01086670	      0.17269490	    134.65558137	     22.72789732	      0.69737584	   1127.47951353
      0.16513392	      0.01278727	      0.01753460	     57.39608795	     -8.26354288	      0.00000000	    589.39390530	    387.61174959	      0.00000000	      0.00000000	      0.00000000	      0.00000000	      0.00000000	      0.00000000	      0.00000000	      0.00000000	      0.00000001	      0.00000000	      0.03105627	      0.02377349	      0.03499849	      0.03249189	      0.05958278	      0.05924168	      0.05632922	      0.05234229	      0.04759526	      0.04270802	      0.01525851	      0.01651186	      0.06550154	      0.04489616	      0.00163735	     -0.05128791	      0.12552349	      0.08712894	     -0.00740037	     -0.00922879	     -0.04084562	     -0.06493552	     -0.15489272	     -0.18406921	      0.00000079	     -0.32847694	      0.00000060	     -0.00000086	     59.18638142	    119.67165279	     11.11972842	     -7.33345589	      1.39940677	     22.96738808	    -59.18638142	   -119.67165279	    -11.11972842	      3.21416634	     -1.71706125	      2.37676316	     15.52687535	     13.49231200	      9.16844103	     -3.40048319	     -0.36613653	      6.25804974	    -15.52687535	    -13.49231200	     -9.16844103	     -0.12103701	      0.15308482	      0.01921867	   -830.08045785	   -732.47373063	    228.72298422	    -16.86661630	     18.60355996	     -1.80874917	    830.08045785	    732.47373063	   -228.72298422	    106.28704693	    -15.07635101	    337.62869379	     -0.43833081	     -0.52619434	     -0.17261584	      0.01708593	     -0.01526096	      0.00313398	      0.43833081	      0.52619434	      0.17261584	     -0.08298654	      0.01103540	      0.17709126	    133.97007347	     22.52080487	      0.70626526	   1130.42714762
      0.16542201	      0.01280419	      0.01759025	     57.55295602	     -8.30718892	      0.00000000	    592.76652136	    389.43494334	      0.00000000	      0.00000000	      0.00000000	      0.00000000	      0.00000000	      0.00000000	      0.00000000	      0.00000000	      0.00000001	      0.00000000	      0.03105014	      0.02376964	      0.03501757	      0.03250271	      0.05959763	      0.05924403	      0.05632356	      0.05233406	      0.04758015	      0.04268986	      0.01525851	      0.01651186	      0.06550154	      0.04489616	      0.00143990	     -0.05144171	      0.12613694	      0.08749073	     -0.00715294	     -0.00918948	     -0.04094199	     -0.06508248	     -0.15516101	     -0.18441621	      0.00000079	     -0.32847694	      0.00000060	     -0.00000086	     59.96664344	    120.23004890	     11.37935929	     -7.45703622	      1.42294516	     23.28008242	    -59.96664344	   -120.23004890	    -11.37935929	      3.23848980	     -1.74806987	      2.38584668	     15.62819492	     13.42030575	      9.09440668	     -3.37197145	     -0.36765054	      6.29740840	    -15.62819492	    -13.42030575	     -9.09440668	     -0.12136323	      0.15542094	      0.01885866	   -833.76065964	   -731.92652940	    229.70449412	    -16.86435616	     18.69993786	     -1.79117164	    833.76065964	    731.92652940	   -229.70449412	    106.67687129	    -15.15046283	    339.09452785	     -0.45754109	     -0.54898562	     -0.18087469	      0.01781207	     -0.01595095	      0.00335756	      0.45754109	      0.54898562	      0.18087469	     -0.08687367	      0.01151372	      0.18480856	    134.83602190	     22.51784439	      0.73718703	   1132.97724453
